<svg width="16" height="16" viewBox="0 0 16 16" fill="none" xmlns="http://www.w3.org/2000/svg">
<path d="M10.6667 5.33325C11.7276 5.33325 12.745 5.75468 13.4951 6.50482C14.2453 7.25497 14.6667 8.27239 14.6667 9.33325V13.9999H12V9.33325C12 8.97963 11.8595 8.64049 11.6095 8.39044C11.3594 8.14039 11.0203 7.99992 10.6667 7.99992C10.3131 7.99992 9.97393 8.14039 9.72388 8.39044C9.47383 8.64049 9.33335 8.97963 9.33335 9.33325V13.9999H6.66669V9.33325C6.66669 8.27239 7.08811 7.25497 7.83826 6.50482C8.58841 5.75468 9.60582 5.33325 10.6667 5.33325V5.33325Z" stroke="#B7B7B7" stroke-width="2" stroke-linecap="round" stroke-linejoin="round"/>
<path d="M3.99998 6H1.33331V14H3.99998V6Z" stroke="#B7B7B7" stroke-width="2" stroke-linecap="round" stroke-linejoin="round"/>
<path d="M2.66665 3.99992C3.40303 3.99992 3.99998 3.40296 3.99998 2.66659C3.99998 1.93021 3.40303 1.33325 2.66665 1.33325C1.93027 1.33325 1.33331 1.93021 1.33331 2.66659C1.33331 3.40296 1.93027 3.99992 2.66665 3.99992Z" stroke="#B7B7B7" stroke-width="2" stroke-linecap="round" stroke-linejoin="round"/>
</svg>
