<svg width="24" height="25" viewBox="0 0 24 25" fill="none" xmlns="http://www.w3.org/2000/svg">
<path d="M16 8.59912C17.5913 8.59912 19.1174 9.23126 20.2426 10.3565C21.3679 11.4817 22 13.0078 22 14.5991V21.5991H18V14.5991C18 14.0687 17.7893 13.56 17.4142 13.1849C17.0391 12.8098 16.5304 12.5991 16 12.5991C15.4696 12.5991 14.9609 12.8098 14.5858 13.1849C14.2107 13.56 14 14.0687 14 14.5991V21.5991H10V14.5991C10 13.0078 10.6321 11.4817 11.7574 10.3565C12.8826 9.23126 14.4087 8.59912 16 8.59912V8.59912Z" stroke="white" stroke-width="2" stroke-linecap="round" stroke-linejoin="round"/>
<path d="M6 9.59912H2V21.5991H6V9.59912Z" stroke="white" stroke-width="2" stroke-linecap="round" stroke-linejoin="round"/>
<path d="M4 6.59912C5.10457 6.59912 6 5.70369 6 4.59912C6 3.49455 5.10457 2.59912 4 2.59912C2.89543 2.59912 2 3.49455 2 4.59912C2 5.70369 2.89543 6.59912 4 6.59912Z" stroke="white" stroke-width="2" stroke-linecap="round" stroke-linejoin="round"/>
</svg>
