<svg width="20" height="21" viewBox="0 0 20 21" fill="none" xmlns="http://www.w3.org/2000/svg">
<path d="M17.5 8.93237C17.5 14.7657 10 19.7657 10 19.7657C10 19.7657 2.5 14.7657 2.5 8.93237C2.5 6.94325 3.29018 5.03559 4.6967 3.62907C6.10322 2.22255 8.01088 1.43237 10 1.43237C11.9891 1.43237 13.8968 2.22255 15.3033 3.62907C16.7098 5.03559 17.5 6.94325 17.5 8.93237Z" stroke="white" stroke-width="2" stroke-linecap="round" stroke-linejoin="round"/>
<path d="M10 11.4325C11.3807 11.4325 12.5 10.1266 12.5 8.51579C12.5 6.90496 11.3807 5.59912 10 5.59912C8.61929 5.59912 7.5 6.90496 7.5 8.51579C7.5 10.1266 8.61929 11.4325 10 11.4325Z" stroke="white" stroke-width="2" stroke-linecap="round" stroke-linejoin="round"/>
</svg>
