<svg width="16" height="16" viewBox="0 0 16 16" fill="none" xmlns="http://www.w3.org/2000/svg">
<path d="M13.3334 6.7878C13.3334 11.0302 8.00008 14.6666 8.00008 14.6666C8.00008 14.6666 2.66675 11.0302 2.66675 6.7878C2.66675 5.34116 3.22865 3.95378 4.22884 2.93085C5.22904 1.90793 6.58559 1.33325 8.00008 1.33325C9.41457 1.33325 10.7711 1.90793 11.7713 2.93085C12.7715 3.95378 13.3334 5.34116 13.3334 6.7878Z" stroke="#961E3C" stroke-width="2" stroke-linecap="round" stroke-linejoin="round"/>
<path d="M8 8.66675C9.10457 8.66675 10 7.77132 10 6.66675C10 5.56218 9.10457 4.66675 8 4.66675C6.89543 4.66675 6 5.56218 6 6.66675C6 7.77132 6.89543 8.66675 8 8.66675Z" stroke="#961E3C" stroke-width="2" stroke-linecap="round" stroke-linejoin="round"/>
</svg>
