<svg width="20" height="21" viewBox="0 0 20 21" fill="none" xmlns="http://www.w3.org/2000/svg">
<g clip-path="url(#clip0_1254_3062)">
<path d="M12.5417 4.76571C13.3556 4.92451 14.1037 5.32259 14.6901 5.90899C15.2765 6.49538 15.6745 7.24343 15.8333 8.05737L12.5417 4.76571ZM12.5417 1.43237C14.2327 1.62024 15.8097 2.37752 17.0135 3.57988C18.2174 4.78224 18.9767 6.35821 19.1667 8.04904L12.5417 1.43237ZM18.3333 14.699V17.199C18.3343 17.4311 18.2867 17.6608 18.1938 17.8735C18.1008 18.0861 17.9644 18.277 17.7934 18.4339C17.6224 18.5908 17.4205 18.7103 17.2006 18.7846C16.9808 18.859 16.7478 18.8866 16.5167 18.8657C13.9524 18.5871 11.4892 17.7108 9.325 16.3074C7.31152 15.0279 5.60445 13.3208 4.325 11.3074C2.91665 9.13338 2.0402 6.6582 1.76667 4.08237C1.74584 3.85193 1.77323 3.61967 1.84708 3.40039C1.92094 3.18111 2.03964 2.97961 2.19564 2.80872C2.35163 2.63783 2.5415 2.5013 2.75316 2.40781C2.96481 2.31432 3.19362 2.26592 3.425 2.26571H5.925C6.32942 2.26173 6.72149 2.40494 7.02813 2.66865C7.33478 2.93236 7.53506 3.29858 7.59167 3.69904C7.69719 4.4991 7.89288 5.28465 8.175 6.04071C8.28712 6.33898 8.31139 6.66314 8.24492 6.97477C8.17846 7.28641 8.02405 7.57247 7.8 7.79904L6.74167 8.85737C7.92796 10.9437 9.65538 12.6711 11.7417 13.8574L12.8 12.799C13.0266 12.575 13.3126 12.4206 13.6243 12.3541C13.9359 12.2877 14.2601 12.3119 14.5583 12.424C15.3144 12.7062 16.0999 12.9019 16.9 13.0074C17.3048 13.0645 17.6745 13.2684 17.9388 13.5803C18.2031 13.8922 18.3435 14.2904 18.3333 14.699Z" stroke="white" stroke-width="2" stroke-linecap="round" stroke-linejoin="round"/>
</g>
<defs>
<clipPath id="clip0_1254_3062">
<rect width="20" height="20" fill="white" transform="translate(0 0.599121)"/>
</clipPath>
</defs>
</svg>
