<svg width="20" height="20" viewBox="0 0 20 20" fill="none" xmlns="http://www.w3.org/2000/svg">
<g clip-path="url(#clip0_2202_11780)">
<path d="M18.7833 5.34992C18.6843 4.95443 18.4827 4.59206 18.1989 4.29942C17.915 4.00679 17.559 3.79424 17.1667 3.68325C15.7333 3.33325 10 3.33325 10 3.33325C10 3.33325 4.26667 3.33325 2.83333 3.71659C2.44104 3.82757 2.08498 4.04012 1.80112 4.33276C1.51726 4.6254 1.31566 4.98776 1.21666 5.38325C0.954344 6.83788 0.826028 8.31351 0.833332 9.79159C0.823981 11.2808 0.952305 12.7677 1.21666 14.2333C1.3258 14.6165 1.53192 14.965 1.81512 15.2453C2.09832 15.5256 2.44902 15.7281 2.83333 15.8333C4.26667 16.2166 10 16.2166 10 16.2166C10 16.2166 15.7333 16.2166 17.1667 15.8333C17.559 15.7223 17.915 15.5097 18.1989 15.2171C18.4827 14.9244 18.6843 14.5621 18.7833 14.1666C19.0436 12.7229 19.1719 11.2585 19.1667 9.79159C19.176 8.30238 19.0477 6.8155 18.7833 5.34992Z" stroke="#B7B7B7" stroke-width="2" stroke-linecap="round" stroke-linejoin="round"/>
<path d="M8.125 12.5166L12.9167 9.79159L8.125 7.06658V12.5166Z" stroke="#B7B7B7" stroke-width="2" stroke-linecap="round" stroke-linejoin="round"/>
</g>
<defs>
<clipPath id="clip0_2202_11780">
<rect width="20" height="20" fill="white"/>
</clipPath>
</defs>
</svg>
